<svg xmlns="http://www.w3.org/2000/svg" width="1120" height="620" viewBox="0 0 1120 620">
<rect width="100%" height="100%" fill="#fff"/>
<style>text{font-family:system-ui,-apple-system,sans-serif}.axis{fill:#475569;font-size:13px}.label{fill:#0f172a;font-size:12px}.title{fill:#0f172a;font-size:24px;font-weight:600}</style>
<text class="title" x="90" y="34">Explicit disk restore + TTFT</text>
<text class="axis" x="90" y="54">Restore plus streamed TTFT; raw points (n=1); no smoothing; log y-axis</text>
<line x1="90" y1="540.0" x2="800" y2="540.0" stroke="#e2e8f0"/>
<text class="axis" x="78" y="544.0" text-anchor="end">0.1</text>
<line x1="90" y1="420.0" x2="800" y2="420.0" stroke="#e2e8f0"/>
<text class="axis" x="78" y="424.0" text-anchor="end">1</text>
<line x1="90" y1="300.0" x2="800" y2="300.0" stroke="#e2e8f0"/>
<text class="axis" x="78" y="304.0" text-anchor="end">10</text>
<line x1="90" y1="180.0" x2="800" y2="180.0" stroke="#e2e8f0"/>
<text class="axis" x="78" y="184.0" text-anchor="end">100</text>
<line x1="90" y1="60.0" x2="800" y2="60.0" stroke="#e2e8f0"/>
<text class="axis" x="78" y="64.0" text-anchor="end">1K</text>
<line x1="199.6" y1="60" x2="199.6" y2="540" stroke="#f1f5f9"/>
<text class="axis" x="199.6" y="564" text-anchor="middle">8.19K</text>
<line x1="309.1" y1="60" x2="309.1" y2="540" stroke="#f1f5f9"/>
<text class="axis" x="309.1" y="564" text-anchor="middle">16.4K</text>
<line x1="528.3" y1="60" x2="528.3" y2="540" stroke="#f1f5f9"/>
<text class="axis" x="528.3" y="564" text-anchor="middle">32.8K</text>
<line x1="747.4" y1="60" x2="747.4" y2="540" stroke="#f1f5f9"/>
<text class="axis" x="747.4" y="564" text-anchor="middle">49.2K</text>
<line x1="90" y1="540" x2="800" y2="540" stroke="#64748b"/>
<line x1="90" y1="60" x2="90" y2="540" stroke="#64748b"/>
<text class="axis" x="445.0" y="600" text-anchor="middle">Prompt tokens</text>
<text class="axis" transform="translate(24 300.0) rotate(-90)" text-anchor="middle">TTFT (seconds, log scale)</text>
<polyline points="199.6,252.8 309.1,209.6 528.3,158.0 747.4,126.5" fill="none" stroke="#2563eb" stroke-width="2"/>
<circle cx="199.6" cy="252.8" r="6" fill="#2563eb"><title>DeepSeek-V4-Flash-0731 UD-Q8_K_XL / : TTFT (seconds, log scale) 24.7; Prompt tokens 8192.0</title></circle>
<circle cx="309.1" cy="209.6" r="6" fill="#2563eb"><title>DeepSeek-V4-Flash-0731 UD-Q8_K_XL / : TTFT (seconds, log scale) 56.7; Prompt tokens 16384.0</title></circle>
<circle cx="528.3" cy="158.0" r="6" fill="#2563eb"><title>DeepSeek-V4-Flash-0731 UD-Q8_K_XL / : TTFT (seconds, log scale) 152.5; Prompt tokens 32768.0</title></circle>
<circle cx="747.4" cy="126.5" r="6" fill="#2563eb"><title>DeepSeek-V4-Flash-0731 UD-Q8_K_XL / : TTFT (seconds, log scale) 279.0; Prompt tokens 49152.0</title></circle>
<circle cx="825" cy="80" r="6" fill="#2563eb"/>
<text class="label" x="839" y="84">DeepSeek-V4-Flash-0731 UD-Q8_K_XL</text>
<polyline points="199.6,270.7 309.1,229.3 528.3,183.3 747.4,153.7" fill="none" stroke="#dc2626" stroke-width="2"/>
<circle cx="199.6" cy="270.7" r="6" fill="#dc2626"><title>MiMo-V2.5 UD-Q3_K_M / : TTFT (seconds, log scale) 17.5; Prompt tokens 8192.0</title></circle>
<circle cx="309.1" cy="229.3" r="6" fill="#dc2626"><title>MiMo-V2.5 UD-Q3_K_M / : TTFT (seconds, log scale) 38.8; Prompt tokens 16384.0</title></circle>
<circle cx="528.3" cy="183.3" r="6" fill="#dc2626"><title>MiMo-V2.5 UD-Q3_K_M / : TTFT (seconds, log scale) 93.9; Prompt tokens 32768.0</title></circle>
<circle cx="747.4" cy="153.7" r="6" fill="#dc2626"><title>MiMo-V2.5 UD-Q3_K_M / : TTFT (seconds, log scale) 165.6; Prompt tokens 49152.0</title></circle>
<circle cx="825" cy="122" r="6" fill="#dc2626"/>
<text class="label" x="839" y="126">MiMo-V2.5 UD-Q3_K_M</text>
<polyline points="199.6,463.8 309.1,436.4 528.3,402.1 747.4,374.0" fill="none" stroke="#16a34a" stroke-width="2"/>
<circle cx="199.6" cy="463.8" r="6" fill="#16a34a"><title>MiniMax M2.7 UD-Q4_K_M / : TTFT (seconds, log scale) 0.4; Prompt tokens 8192.0</title></circle>
<circle cx="309.1" cy="436.4" r="6" fill="#16a34a"><title>MiniMax M2.7 UD-Q4_K_M / : TTFT (seconds, log scale) 0.7; Prompt tokens 16384.0</title></circle>
<circle cx="528.3" cy="402.1" r="6" fill="#16a34a"><title>MiniMax M2.7 UD-Q4_K_M / : TTFT (seconds, log scale) 1.4; Prompt tokens 32768.0</title></circle>
<circle cx="747.4" cy="374.0" r="6" fill="#16a34a"><title>MiniMax M2.7 UD-Q4_K_M / : TTFT (seconds, log scale) 2.4; Prompt tokens 49152.0</title></circle>
<circle cx="825" cy="164" r="6" fill="#16a34a"/>
<text class="label" x="839" y="168">MiniMax M2.7 UD-Q4_K_M</text>
<polyline points="199.6,433.7 309.1,408.9 528.3,378.8 747.4,355.8" fill="none" stroke="#9333ea" stroke-width="2"/>
<circle cx="199.6" cy="433.7" r="6" fill="#9333ea"><title>Qwen3-235B-A22B Q4_K_M / : TTFT (seconds, log scale) 0.8; Prompt tokens 8192.0</title></circle>
<circle cx="309.1" cy="408.9" r="6" fill="#9333ea"><title>Qwen3-235B-A22B Q4_K_M / : TTFT (seconds, log scale) 1.2; Prompt tokens 16384.0</title></circle>
<circle cx="528.3" cy="378.8" r="6" fill="#9333ea"><title>Qwen3-235B-A22B Q4_K_M / : TTFT (seconds, log scale) 2.2; Prompt tokens 32768.0</title></circle>
<circle cx="747.4" cy="355.8" r="6" fill="#9333ea"><title>Qwen3-235B-A22B Q4_K_M / : TTFT (seconds, log scale) 3.4; Prompt tokens 49152.0</title></circle>
<circle cx="825" cy="206" r="6" fill="#9333ea"/>
<text class="label" x="839" y="210">Qwen3-235B-A22B Q4_K_M</text>
</svg>
